<?xml version="1.0" encoding="iso-8859-1"?>
<!-- Uploaded to: SVG Repo, www.svgrepo.com, Generator: SVG Repo Mixer Tools -->
<svg version="1.1" id="Layer_1" xmlns="http://www.w3.org/2000/svg" xmlns:xlink="http://www.w3.org/1999/xlink" 
	 viewBox="0 0 512 512" xml:space="preserve">
<polygon style="fill:#F5DEB2;" points="256.02,55.652 72.368,244.87 439.672,244.87 "/>
<polygon style="fill:#EFCB99;" points="439.672,244.87 256.02,55.652 256.02,244.87 "/>
<path style="fill:#95673F;" d="M289.411,244.87h-66.783c-9.223,0-16.696-7.473-16.696-16.696v-22.261
	c0-27.619,22.468-50.087,50.087-50.087s50.087,22.468,50.087,50.087v22.261C306.107,237.397,298.634,244.87,289.411,244.87z"/>
<path style="fill:#875334;" d="M289.411,244.87c9.223,0,16.696-7.473,16.696-16.696v-22.261c0-27.619-22.468-50.087-50.087-50.087
	v89.043H289.411z"/>
<rect x="72.37" y="211.478" style="fill:#ECBE80;" width="367.193" height="89.043"/>
<rect x="256.022" y="211.478" style="fill:#D4A160;" width="183.541" height="89.043"/>
<rect x="72.37" y="345.043" style="fill:#ECBE80;" width="367.193" height="122.435"/>
<g>
	<rect x="256.022" y="345.043" style="fill:#D4A160;" width="183.541" height="122.435"/>
	<path style="fill:#D4A160;" d="M428.542,22.261h-66.783c-9.223,0-16.696,7.473-16.696,16.696v56.218l100.063,55.087V38.957
		C445.126,29.734,437.764,22.261,428.542,22.261z"/>
</g>
<path style="fill:#95673F;" d="M493.989,184.209L288.076,11.687C278.726,3.896,267.373,0,256.02,0
	c-11.353,0-22.706,3.896-32.056,11.687L18.051,184.209c-10.24,8.57-16.584,20.591-17.809,33.948
	c-1.225,13.245,2.894,26.268,11.464,36.508c17.697,21.148,49.307,23.93,70.456,6.344c5.677-4.675,135.012-113.085,173.857-145.586
	l173.857,145.586c21.259,17.697,52.87,14.803,70.456-6.344C518.03,233.405,515.248,201.906,493.989,184.209z"/>
<path style="fill:#875334;" d="M500.332,254.664c-17.586,21.148-49.195,24.042-70.456,6.344L256.019,115.423V0
	c11.353,0,22.706,3.896,32.056,11.687l205.913,172.522C515.248,201.906,518.03,233.405,500.332,254.664z"/>
<path style="fill:#F5DEB2;" d="M439.672,512H72.368c-18.442,0-33.391-14.949-33.391-33.391l0,0
	c0-18.442,14.949-33.391,33.391-33.391h367.304c18.442,0,33.391,14.949,33.391,33.391l0,0C473.063,497.051,458.113,512,439.672,512z
	"/>
<path style="fill:#EFCB99;" d="M439.672,445.217H256.02V512h183.652c18.442,0,33.391-14.949,33.391-33.391
	S458.113,445.217,439.672,445.217z"/>
<path style="fill:#95673F;" d="M322.691,512H189.237V361.739c0-9.22,7.475-16.696,16.696-16.696h100.174
	c9.22,0,16.584,7.475,16.584,16.696V512z"/>
<path style="fill:#875334;" d="M306.107,345.043H256.02V512h66.671V361.739C322.691,352.519,315.326,345.043,306.107,345.043z"/>
<path style="fill:#F5DEB2;" d="M439.672,367.304H72.368c-18.442,0-33.391-14.949-33.391-33.391l0,0
	c0-18.442,14.949-33.391,33.391-33.391h367.304c18.442,0,33.391,14.949,33.391,33.391l0,0
	C473.063,352.355,458.113,367.304,439.672,367.304z"/>
<path style="fill:#EFCB99;" d="M439.672,300.522H256.02v66.783h183.652c18.442,0,33.391-14.949,33.391-33.391
	S458.113,300.522,439.672,300.522z"/>
</svg>